<?xml version="1.0" encoding="UTF-8"?>
<svg width="600px" height="600px" viewBox="0 0 600 600" version="1.1" xmlns="http://www.w3.org/2000/svg" xmlns:xlink="http://www.w3.org/1999/xlink">
    <!-- Generator: Sketch 52.2 (67145) - http://www.bohemiancoding.com/sketch -->
    <title>Artboard</title>
    <desc>Created with Sketch.</desc>
    <g id="Artboard" stroke="none" stroke-width="1" fill="none" fill-rule="evenodd">
        <rect fill="#4A90E2" x="0" y="0" width="600" height="600"></rect>
        <path d="M174,240 L182.923077,240 L214,313 L202.512821,313 L195.230769,294.956215 L160.666667,294.956215 L153.487179,313 L142,313 L174,240 Z M192,287 L178.208955,253 L178,253 L164,287 L192,287 Z M226.201271,297.819892 C228.000715,300.510766 230.301893,302.494393 233.104873,303.770833 C235.907853,305.047273 238.797302,305.685484 241.773305,305.685484 C243.43433,305.685484 245.129935,305.42675 246.860169,304.909274 C248.590404,304.391798 250.164894,303.615597 251.583686,302.580645 C253.002479,301.545694 254.161719,300.269273 255.061441,298.751344 C255.961163,297.233415 256.411017,295.474024 256.411017,293.473118 C256.411017,290.644251 255.511308,288.488135 253.711864,287.004704 C251.91242,285.521274 249.680451,284.279351 247.01589,283.278898 C244.351328,282.278445 241.444578,281.312505 238.295551,280.381048 C235.146524,279.449592 232.239773,278.155922 229.575212,276.5 C226.910651,274.844078 224.678681,272.618966 222.879237,269.824597 C221.079793,267.030228 220.180085,263.252712 220.180085,258.491935 C220.180085,256.353036 220.647241,254.076177 221.581568,251.66129 C222.515895,249.246404 223.986572,247.03854 225.993644,245.037634 C228.000716,243.036728 230.578727,241.363582 233.727754,240.018145 C236.876781,238.672708 240.665938,238 245.095339,238 C249.109483,238 252.950547,238.551966 256.618644,239.655914 C260.286742,240.759862 263.50493,243.002223 266.273305,246.383065 L258.175847,253.731183 C256.930079,251.799273 255.165266,250.24687 252.881356,249.073925 C250.597446,247.90098 248.002133,247.314516 245.095339,247.314516 C242.326964,247.314516 240.025786,247.676744 238.191737,248.40121 C236.357689,249.125676 234.887011,250.057118 233.779661,251.195565 C232.672311,252.334011 231.893717,253.558685 231.443856,254.869624 C230.993995,256.180562 230.769068,257.387987 230.769068,258.491935 C230.769068,261.59679 231.668776,263.977142 233.46822,265.633065 C235.267664,267.288987 237.499634,268.634403 240.164195,269.669355 C242.828756,270.704306 245.735507,271.635749 248.884534,272.46371 C252.033561,273.291671 254.940312,274.447349 257.604873,275.93078 C260.269434,277.41421 262.501403,279.415086 264.300847,281.933468 C266.100291,284.45185 267,287.918885 267,292.334677 C267,295.853512 266.325219,299.027316 264.975636,301.856183 C263.626053,304.68505 261.809333,307.065403 259.525424,308.997312 C257.241514,310.929221 254.542388,312.412629 251.427966,313.447581 C248.313544,314.482532 244.991543,315 241.461864,315 C236.755626,315 232.291688,314.172051 228.069915,312.516129 C223.848143,310.860207 220.491538,308.307365 218,304.857527 L226.201271,297.819892 Z M281,273.716102 L283.405049,271.550847 L315.767218,240 L329.621949,240 L294.261368,273.716102 L332,313 L317.524908,313 L283.405049,276.5 L281,273.716102 Z M340,240 L387.143158,240 L387.143158,249.279661 L349.903158,249.279661 L349.903158,271.035311 L384.564211,271.035311 L384.564211,280.314972 L349.903158,280.314972 L349.903158,303.720339 L389,303.720339 L389,313 L340,313 L340,240 Z M420.563291,281.861582 L393,240 L405.650316,240 L425.5,272.066384 L445.966772,240 L458,240 L430.436709,281.861582 L430.436709,313 L420.563291,313 L420.563291,281.861582 Z" id="ASKEY" fill="#FFFFFF"></path>
        <g id="background" opacity="0.129882812" transform="translate(-10.000000, 98.000000)" fill="#FFFFFF">
            <path d="M292.997199,228.193548 L297.546218,228.193548 L290.722689,250.935484 C290.506068,251.634412 290.330066,252.346771 290.194678,253.072581 C290.05929,253.798391 289.991597,254.456986 289.991597,255.048387 C289.991597,255.478497 290.15406,255.854837 290.478992,256.177419 C290.803923,256.500002 291.264236,256.66129 291.859944,256.66129 C293.267981,256.66129 294.703074,256.163983 296.165266,255.169355 C297.627458,254.174726 298.940704,252.857535 300.105042,251.217742 C301.26938,249.577949 302.230622,247.709688 302.988796,245.612903 C303.746969,243.516119 304.12605,241.338721 304.12605,239.080645 C304.12605,236.016114 303.476197,233.220443 302.176471,230.693548 C300.876744,228.166654 299.15734,225.989256 297.018207,224.16129 C294.879074,222.333324 292.442124,220.908607 289.707283,219.887097 C286.972442,218.865586 284.197026,218.354839 281.380952,218.354839 C277.86086,218.354839 274.557438,219.067197 271.470588,220.491935 C268.383738,221.916674 265.689554,223.811816 263.387955,226.177419 C261.086356,228.543023 259.258644,231.27149 257.904762,234.362903 C256.55088,237.454317 255.87395,240.66665 255.87395,244 C255.87395,247.33335 256.55088,250.545683 257.904762,253.637097 C259.258644,256.72851 261.086356,259.456977 263.387955,261.822581 C265.689554,264.188184 268.383738,266.083326 271.470588,267.508065 C274.557438,268.932803 277.86086,269.645161 281.380952,269.645161 C285.442597,269.645161 289.328179,268.784955 293.037815,267.064516 C296.747451,265.344077 299.712407,262.951628 301.932773,259.887097 L307.05042,259.887097 C305.750694,262.091409 304.180215,264.067196 302.338936,265.814516 C300.497657,267.561837 298.466865,269.040317 296.246499,270.25 C294.026133,271.459683 291.656875,272.387094 289.138655,273.032258 C286.620436,273.677423 284.03456,274 281.380952,274 C277.210997,274 273.284799,273.233879 269.602241,271.701613 C265.919683,270.169347 262.697493,268.045712 259.935574,265.330645 C257.173656,262.615578 254.993939,259.430126 253.396359,255.774194 C251.798778,252.118261 251,248.193569 251,244 C251,239.806431 251.798778,235.881739 253.396359,232.225806 C254.993939,228.569874 257.173656,225.384422 259.935574,222.669355 C262.697493,219.954288 265.919683,217.830653 269.602241,216.298387 C273.284799,214.766121 277.210997,214 281.380952,214 C285.117666,214 288.664782,214.604833 292.022409,215.814516 C295.380035,217.0242 298.317915,218.731172 300.836134,220.935484 C303.354354,223.139796 305.344531,225.760738 306.806723,228.798387 C308.268915,231.836037 309,235.155896 309,238.758065 C309,242.252706 308.363685,245.397835 307.091036,248.193548 C305.818388,250.989261 304.247909,253.38171 302.379552,255.370968 C300.511195,257.360225 298.493942,258.879027 296.327731,259.927419 C294.16152,260.975812 292.157806,261.5 290.316527,261.5 C288.691869,261.5 287.392162,261.12366 286.417367,260.370968 C285.442572,259.618276 284.846873,258.40861 284.630252,256.741935 L284.467787,256.741935 C283.222216,258.032265 281.8142,259.147845 280.243697,260.08871 C278.673195,261.029575 276.696557,261.5 274.313725,261.5 C270.847788,261.5 268.058834,260.38442 265.946779,258.153226 C263.834723,255.922032 262.778711,253.005394 262.778711,249.403226 C262.778711,246.607513 263.225486,243.852164 264.119048,241.137097 C265.01261,238.422029 266.298778,235.989258 267.977591,233.83871 C269.656404,231.688161 271.660119,229.954308 273.988796,228.637097 C276.317472,227.319886 278.916886,226.66129 281.787115,226.66129 C283.79086,226.66129 285.618573,227.145156 287.270308,228.112903 C288.922044,229.08065 290.181135,230.801063 291.047619,233.274194 L291.210084,233.274194 L292.997199,228.193548 Z M288.366947,239.564516 C288.366947,238.435478 288.177406,237.373661 287.798319,236.379032 C287.419232,235.384404 286.931842,234.524197 286.336134,233.798387 C285.740427,233.072577 285.049957,232.508067 284.264706,232.104839 C283.479455,231.701611 282.653599,231.5 281.787115,231.5 C279.837525,231.607527 278.023351,232.21236 276.344538,233.314516 C274.665725,234.416672 273.217093,235.814508 271.998599,237.508065 C270.780106,239.201621 269.832403,241.056442 269.155462,243.072581 C268.478521,245.08872 268.140056,247.037625 268.140056,248.919355 C268.140056,251.177431 268.857603,253.032251 270.292717,254.483871 C271.727832,255.935491 273.555544,256.66129 275.77591,256.66129 C277.563034,256.66129 279.214745,256.083339 280.731092,254.927419 C282.24744,253.7715 283.574224,252.333342 284.711485,250.612903 C285.848745,248.892465 286.742294,247.037644 287.392157,245.048387 C288.04202,243.05913 288.366947,241.231191 288.366947,239.564516 Z" id="@"></path>
            <polygon id="/" points="3.06111111 137 0 136.004032 15.9916667 98 19 99.0483871"></polygon>
            <path d="M445.25,250.739496 L440.75,250.739496 L440.75,231 L445.25,231 L445.25,250.739496 Z M440,256.913165 C440,256.046681 440.293747,255.302057 440.88125,254.679272 C441.468753,254.056486 442.174996,253.745098 443,253.745098 C443.800004,253.745098 444.499997,254.042948 445.1,254.638655 C445.700003,255.234363 446,255.965449 446,256.831933 C446,257.698417 445.706253,258.443041 445.11875,259.065826 C444.531247,259.688612 443.825004,260 443,260 C442.599998,260 442.218752,259.918768 441.85625,259.756303 C441.493748,259.593837 441.175001,259.377219 440.9,259.106443 C440.624999,258.835666 440.406251,258.51074 440.24375,258.131653 C440.081249,257.752566 440,257.346407 440,256.913165 Z" id="!"></path>
            <path d="M370.567568,46.4822404 L370.567568,44.3032787 C370.567568,43.7222193 370.601351,43.2270057 370.668919,42.817623 C370.736487,42.4082402 370.858107,42.0384807 371.033784,41.7083333 C371.20946,41.378186 371.439188,41.0612492 371.722973,40.7575137 C372.006758,40.4537781 372.351349,40.0906214 372.756757,39.6680328 L375.878378,36.5778689 C376.554057,35.9175741 376.891892,35.0592038 376.891892,34.0027322 C376.891892,32.9726724 376.547301,32.1341107 375.858108,31.4870219 C375.168915,30.839933 374.297303,30.5163934 373.243243,30.5163934 C372.108102,30.5163934 371.175679,30.8927558 370.445946,31.6454918 C369.716213,32.3982278 369.297298,33.3160237 369.189189,34.3989071 L364,34.0027322 C364.162163,32.7349663 364.499997,31.6058793 365.013514,30.6154372 C365.52703,29.624995 366.195942,28.7864333 367.02027,28.0997268 C367.844599,27.4130202 368.797292,26.8913952 369.878378,26.5348361 C370.959465,26.1782769 372.148642,26 373.445946,26 C374.662168,26 375.790535,26.1716741 376.831081,26.5150273 C377.871627,26.8583806 378.777023,27.3535942 379.547297,28.0006831 C380.317571,28.6477719 380.918917,29.4533194 381.351351,30.4173497 C381.783786,31.38138 382,32.4840557 382,33.7254098 C382,34.5969989 381.87838,35.3629293 381.635135,36.023224 C381.391891,36.6835188 381.06757,37.2909808 380.662162,37.8456284 C380.256755,38.400276 379.790543,38.9285039 379.263514,39.4303279 C378.736484,39.9321519 378.175679,40.4603797 377.581081,41.0150273 C377.202701,41.3583806 376.87838,41.6621116 376.608108,41.9262295 C376.337836,42.1903474 376.114866,42.4610642 375.939189,42.738388 C375.763513,43.0157118 375.635136,43.3326485 375.554054,43.6892077 C375.472973,44.0457668 375.432432,44.474952 375.432432,44.976776 L375.432432,46.4822404 L370.567568,46.4822404 Z M369.756757,51.989071 C369.756757,51.1438938 370.074321,50.4175805 370.709459,49.8101093 C371.344598,49.2026381 372.108104,48.8989071 373,48.8989071 C373.864869,48.8989071 374.621618,49.1894324 375.27027,49.7704918 C375.918922,50.3515512 376.243243,51.0646588 376.243243,51.9098361 C376.243243,52.7550133 375.925679,53.4813267 375.290541,54.0887978 C374.655402,54.696269 373.891896,55 373,55 C372.567565,55 372.155407,54.9207658 371.763514,54.7622951 C371.37162,54.6038243 371.027029,54.3925332 370.72973,54.1284153 C370.432431,53.8642974 370.195947,53.5473607 370.02027,53.1775956 C369.844594,52.8078306 369.756757,52.4116597 369.756757,51.989071 Z" id="?"></path>
            <path d="M370.567568,46.4822404 L370.567568,44.3032787 C370.567568,43.7222193 370.601351,43.2270057 370.668919,42.817623 C370.736487,42.4082402 370.858107,42.0384807 371.033784,41.7083333 C371.20946,41.378186 371.439188,41.0612492 371.722973,40.7575137 C372.006758,40.4537781 372.351349,40.0906214 372.756757,39.6680328 L375.878378,36.5778689 C376.554057,35.9175741 376.891892,35.0592038 376.891892,34.0027322 C376.891892,32.9726724 376.547301,32.1341107 375.858108,31.4870219 C375.168915,30.839933 374.297303,30.5163934 373.243243,30.5163934 C372.108102,30.5163934 371.175679,30.8927558 370.445946,31.6454918 C369.716213,32.3982278 369.297298,33.3160237 369.189189,34.3989071 L364,34.0027322 C364.162163,32.7349663 364.499997,31.6058793 365.013514,30.6154372 C365.52703,29.624995 366.195942,28.7864333 367.02027,28.0997268 C367.844599,27.4130202 368.797292,26.8913952 369.878378,26.5348361 C370.959465,26.1782769 372.148642,26 373.445946,26 C374.662168,26 375.790535,26.1716741 376.831081,26.5150273 C377.871627,26.8583806 378.777023,27.3535942 379.547297,28.0006831 C380.317571,28.6477719 380.918917,29.4533194 381.351351,30.4173497 C381.783786,31.38138 382,32.4840557 382,33.7254098 C382,34.5969989 381.87838,35.3629293 381.635135,36.023224 C381.391891,36.6835188 381.06757,37.2909808 380.662162,37.8456284 C380.256755,38.400276 379.790543,38.9285039 379.263514,39.4303279 C378.736484,39.9321519 378.175679,40.4603797 377.581081,41.0150273 C377.202701,41.3583806 376.87838,41.6621116 376.608108,41.9262295 C376.337836,42.1903474 376.114866,42.4610642 375.939189,42.738388 C375.763513,43.0157118 375.635136,43.3326485 375.554054,43.6892077 C375.472973,44.0457668 375.432432,44.474952 375.432432,44.976776 L375.432432,46.4822404 L370.567568,46.4822404 Z M369.756757,51.989071 C369.756757,51.1438938 370.074321,50.4175805 370.709459,49.8101093 C371.344598,49.2026381 372.108104,48.8989071 373,48.8989071 C373.864869,48.8989071 374.621618,49.1894324 375.27027,49.7704918 C375.918922,50.3515512 376.243243,51.0646588 376.243243,51.9098361 C376.243243,52.7550133 375.925679,53.4813267 375.290541,54.0887978 C374.655402,54.696269 373.891896,55 373,55 C372.567565,55 372.155407,54.9207658 371.763514,54.7622951 C371.37162,54.6038243 371.027029,54.3925332 370.72973,54.1284153 C370.432431,53.8642974 370.195947,53.5473607 370.02027,53.1775956 C369.844594,52.8078306 369.756757,52.4116597 369.756757,51.989071 Z" id="?-copy-2"></path>
            <path d="M142.405405,388.2 L142.405405,384.029787 C142.405405,382.917725 142.469219,381.969959 142.596847,381.18646 C142.724475,380.402962 142.954203,379.695297 143.286036,379.063443 C143.61787,378.431589 144.051799,377.825019 144.587838,377.243714 C145.123877,376.662408 145.774771,375.96738 146.540541,375.158607 L152.436937,369.244487 C153.71322,367.98078 154.351351,366.337986 154.351351,364.316054 C154.351351,362.344671 153.700457,360.739787 152.398649,359.501354 C151.09684,358.262921 149.45046,357.643714 147.459459,357.643714 C145.315305,357.643714 143.554061,358.364016 142.175676,359.804642 C140.79729,361.245268 140.006007,363.001795 139.801802,365.074275 L130,364.316054 C130.306308,361.889736 130.94444,359.72883 131.914414,357.833269 C132.884389,355.937708 134.14789,354.332824 135.704955,353.018569 C137.26202,351.704313 139.061551,350.706 141.103604,350.023598 C143.145656,349.341196 145.39188,349 147.842342,349 C150.139651,349 152.271011,349.328559 154.236486,349.985687 C156.201962,350.642814 157.912155,351.590581 159.367117,352.829014 C160.822079,354.067447 161.957954,355.609146 162.774775,357.454159 C163.591596,359.299171 164,361.40953 164,363.7853 C164,365.453393 163.770273,366.919272 163.310811,368.182979 C162.851349,369.446686 162.238743,370.609279 161.472973,371.670793 C160.707203,372.732307 159.826582,373.743258 158.831081,374.703675 C157.835581,375.664092 156.776282,376.675043 155.653153,377.736557 C154.938435,378.393685 154.325828,378.974981 153.815315,379.480464 C153.304802,379.985947 152.883635,380.504059 152.551802,381.034816 C152.219968,381.565573 151.977478,382.172144 151.824324,382.854545 C151.67117,383.536947 151.594595,384.358345 151.594595,385.318762 L151.594595,388.2 L142.405405,388.2 Z M141.333333,399.077922 C141.333333,397.415576 141.927821,395.987019 143.116815,394.792208 C144.30581,393.597397 145.735111,393 147.404762,393 C149.023818,393 150.44047,393.571423 151.654762,394.714286 C152.869054,395.857149 153.47619,397.259732 153.47619,398.922078 C153.47619,400.584424 152.881702,402.012981 151.692708,403.207792 C150.503714,404.402603 149.074413,405 147.404762,405 C146.595234,405 145.823664,404.844157 145.09003,404.532468 C144.356395,404.220778 143.711312,403.805197 143.154762,403.285714 C142.598212,402.766231 142.155508,402.142861 141.826637,401.415584 C141.497766,400.688308 141.333333,399.909095 141.333333,399.077922 Z" id="?-copy"></path>
            <path d="M164,113.962963 C164,112.382708 164.594488,111.024697 165.783482,109.888889 C166.972476,108.753081 168.401777,108.185185 170.071429,108.185185 C171.690484,108.185185 173.107137,108.72839 174.321429,109.814815 C175.53572,110.90124 176.142857,112.23456 176.142857,113.814815 C176.142857,115.39507 175.548369,116.753081 174.359375,117.888889 C173.170381,119.024697 171.74108,119.592593 170.071429,119.592593 C169.261901,119.592593 168.490331,119.444446 167.756696,119.148148 C167.023062,118.85185 166.377979,118.456793 165.821429,117.962963 C165.264878,117.469133 164.822174,116.876547 164.493304,116.185185 C164.164433,115.493824 164,114.75309 164,113.962963 Z M164,88.7037037 C164,87.1234489 164.594488,85.7654378 165.783482,84.6296296 C166.972476,83.4938215 168.401777,82.9259259 170.071429,82.9259259 C171.690484,82.9259259 173.107137,83.4691304 174.321429,84.5555556 C175.53572,85.6419807 176.142857,86.9753007 176.142857,88.5555556 C176.142857,90.1358104 175.548369,91.4938215 174.359375,92.6296296 C173.170381,93.7654378 171.74108,94.3333333 170.071429,94.3333333 C169.261901,94.3333333 168.490331,94.1851867 167.756696,93.8888889 C167.023062,93.5925911 166.377979,93.1975333 165.821429,92.7037037 C165.264878,92.2098741 164.822174,91.6172874 164.493304,90.9259259 C164.164433,90.2345644 164,89.4938311 164,88.7037037 Z M181,127.135135 L181.073593,126.837838 C184.017331,122.675655 186.323224,118.104755 187.991342,113.125 C189.65946,108.145245 190.493506,103.103629 190.493506,98 C190.493506,92.8468211 189.65946,87.7928176 187.991342,82.8378378 C186.323224,77.8828581 184.017331,73.3243451 181.073593,69.1621622 L187.255411,65 C190.64071,69.7072307 193.277768,74.8603324 195.166667,80.4594595 C197.055565,86.0585866 198,91.9053749 198,98 C198,104.045075 197.055565,109.879476 195.166667,115.503378 C193.277768,121.12728 190.64071,126.292769 187.255411,131 L181,127.135135 Z" id=":)"></path>
            <path d="M56.6802326,246.658228 L57.0465116,246.658228 C58.4302395,246.658228 59.847861,246.89317 61.2994186,247.363061 C62.7509763,247.832952 63.9922429,248.524353 65.0232558,249.437284 L61.6453488,253.182969 C61.0213147,252.511696 60.2751981,251.981398 59.4069767,251.59206 C58.5387553,251.202721 57.6298497,251.008055 56.6802326,251.008055 L56.6802326,259.063291 L56.8430233,259.103567 C57.9825638,259.398927 59.1017387,259.734559 60.2005814,260.110472 C61.2994241,260.486385 62.2761585,260.976407 63.130814,261.580552 C63.9854694,262.184698 64.6773229,262.943225 65.2063953,263.856157 C65.7354678,264.769088 66,265.910235 66,267.279632 C66,268.622178 65.7558164,269.810313 65.2674419,270.844074 C64.7790673,271.877834 64.1143453,272.763901 63.2732558,273.502301 C62.4321663,274.240702 61.448649,274.824701 60.3226744,275.254315 C59.1966998,275.68393 57.9825647,275.96586 56.6802326,276.100115 L56.6802326,279 L54.4825581,279 L54.4825581,276.140391 C52.6918515,276.167242 50.9757834,275.898737 49.3343023,275.334868 C47.6928212,274.770998 46.2480683,273.844655 45,272.555811 L48.7034884,268.810127 C49.3546544,269.723058 50.1957313,270.421171 51.2267442,270.904488 C52.2577571,271.387804 53.3430176,271.68316 54.4825581,271.790564 L54.4825581,263.29229 L54.2790698,263.252014 C53.1395292,262.929803 52.0542687,262.574033 51.0232558,262.184695 C49.9922429,261.795357 49.0765544,261.285197 48.2761628,260.6542 C47.4757712,260.023204 46.8449635,259.257964 46.3837209,258.358458 C45.9224783,257.458952 45.6918605,256.337943 45.6918605,254.995397 C45.6918605,253.787106 45.9360441,252.69966 46.4244186,251.733026 C46.9127931,250.766393 47.5639494,249.927315 48.377907,249.215765 C49.1918645,248.504216 50.1279017,247.933642 51.1860465,247.504028 C52.2441913,247.074413 53.3430176,246.805908 54.4825581,246.698504 L54.4825581,244 L56.6802326,244 L56.6802326,246.658228 Z M54.4825581,251.088608 C53.532941,251.249713 52.6850813,251.645758 51.9389535,252.276755 C51.1928257,252.907752 50.8197674,253.733405 50.8197674,254.75374 C50.8197674,255.371311 50.9215106,255.868046 51.125,256.243959 C51.3284894,256.619871 51.5930216,256.942078 51.9186047,257.210587 C52.2441877,257.479096 52.6308117,257.700613 53.0784884,257.875144 C53.526165,258.049675 53.9941836,258.244341 54.4825581,258.459148 L54.4825581,251.088608 Z M56.6802326,271.790564 C57.2500028,271.68316 57.7858502,271.515344 58.2877907,271.287112 C58.7897312,271.058879 59.2306183,270.776948 59.6104651,270.441312 C59.990312,270.105675 60.2955415,269.702918 60.5261628,269.233026 C60.7567841,268.763135 60.872093,268.232838 60.872093,267.642117 C60.872093,267.051397 60.7432183,266.554663 60.4854651,266.151899 C60.2277119,265.749135 59.8953509,265.413503 59.4883721,265.144994 C59.0813933,264.876485 58.6337234,264.648256 58.1453488,264.460299 C57.6569743,264.272343 57.1686071,264.097814 56.6802326,263.936709 L56.6802326,271.790564 Z" id="$"></path>
            <polygon id="&lt;" points="52 11.9482759 52 9.05172414 73 0 73 4.42528736 58.972332 10.5 73 16.5747126 73 21"></polygon>
            <path d="M412.727273,370.2 C412.727273,369.361286 412.886729,368.581724 413.205645,367.86129 C413.524562,367.140857 413.96444,366.506454 414.525293,365.958065 C415.086146,365.409675 415.734967,364.979571 416.471774,364.667742 C417.208581,364.355912 418.005861,364.2 418.863636,364.2 C419.721412,364.2 420.518691,364.355912 421.255499,364.667742 C421.992306,364.979571 422.641126,365.409675 423.201979,365.958065 C423.762833,366.506454 424.202711,367.140857 424.521628,367.86129 C424.840544,368.581724 425,369.361286 425,370.2 C425,371.038714 424.840544,371.818276 424.521628,372.53871 C424.202711,373.259143 423.762833,373.893546 423.201979,374.441935 C422.641126,374.990325 421.992306,375.420429 421.255499,375.732258 C420.518691,376.044088 419.721412,376.2 418.863636,376.2 C418.005861,376.2 417.208581,376.044088 416.471774,375.732258 C415.734967,375.420429 415.086146,374.990325 414.525293,374.441935 C413.96444,373.893546 413.524562,373.259143 413.205645,372.53871 C412.886729,371.818276 412.727273,371.038714 412.727273,370.2 Z M421.727273,371 C421.727273,370.211848 421.451518,369.548151 420.9,369.008889 C420.348482,368.469627 419.669701,368.2 418.863636,368.2 C418.057572,368.2 417.378791,368.469627 416.827273,369.008889 C416.275755,369.548151 416,370.211848 416,371 C416,371.788152 416.275755,372.451849 416.827273,372.991111 C417.378791,373.530373 418.057572,373.8 418.863636,373.8 C419.669701,373.8 420.348482,373.530373 420.9,372.991111 C421.451518,372.451849 421.727273,371.788152 421.727273,371 Z M398,359.8 C398,358.961286 398.159456,358.181724 398.478372,357.46129 C398.797289,356.740857 399.237167,356.106454 399.798021,355.558065 C400.358874,355.009675 401.007694,354.579571 401.744501,354.267742 C402.481309,353.955912 403.278588,353.8 404.136364,353.8 C404.994139,353.8 405.791419,353.955912 406.528226,354.267742 C407.265033,354.579571 407.913854,355.009675 408.474707,355.558065 C409.03556,356.106454 409.475438,356.740857 409.794355,357.46129 C410.113271,358.181724 410.272727,358.961286 410.272727,359.8 C410.272727,360.638714 410.113271,361.418276 409.794355,362.13871 C409.475438,362.859143 409.03556,363.493546 408.474707,364.041935 C407.913854,364.590325 407.265033,365.020429 406.528226,365.332258 C405.791419,365.644088 404.994139,365.8 404.136364,365.8 C403.278588,365.8 402.481309,365.644088 401.744501,365.332258 C401.007694,365.020429 400.358874,364.590325 399.798021,364.041935 C399.237167,363.493546 398.797289,362.859143 398.478372,362.13871 C398.159456,361.418276 398,360.638714 398,359.8 Z M407,359 C407,358.211848 406.724245,357.548151 406.172727,357.008889 C405.621209,356.469627 404.942428,356.2 404.136364,356.2 C403.330299,356.2 402.651518,356.469627 402.1,357.008889 C401.548482,357.548151 401.272727,358.211848 401.272727,359 C401.272727,359.788152 401.548482,360.451849 402.1,360.991111 C402.651518,361.530373 403.330299,361.8 404.136364,361.8 C404.942428,361.8 405.621209,361.530373 406.172727,360.991111 C406.724245,360.451849 407,359.788152 407,359 Z M417.369102,353 L420.090909,354.181347 L406.44908,377 L403.727273,375.818653 L417.369102,353 Z" id="%"></path>
            <path d="M551.010417,311.357259 L558,311.357259 L553.130208,326 L547,326 L551.010417,311.357259 Z M548.71875,296.326264 C548.71875,295.143007 549.16753,294.12616 550.065104,293.275693 C550.962678,292.425227 552.04166,292 553.302083,292 C554.524312,292 555.593745,292.406739 556.510417,293.220228 C557.427088,294.033718 557.885417,295.032077 557.885417,296.215334 C557.885417,297.398592 557.436636,298.415439 556.539062,299.265905 C555.641489,300.116372 554.562506,300.541599 553.302083,300.541599 C552.690969,300.541599 552.10851,300.43067 551.554688,300.208809 C551.000865,299.986948 550.513891,299.691138 550.09375,299.32137 C549.673609,298.951602 549.339411,298.507887 549.091146,297.990212 C548.842881,297.472537 548.71875,296.917893 548.71875,296.326264 Z" id=";"></path>
            <path d="M619,129 L619,137.8 L571,137.8 L571,129 L619,129 Z M619,144.2 L619,153 L571,153 L571,144.2 L619,144.2 Z" id="="></path>
        </g>
        <text id="ASCII-Video-Chat" font-family="Avenir-Light, Avenir" font-size="40" font-weight="300" letter-spacing="-0.274285704" fill="#FFFFFF">
            <tspan x="148.754286" y="355">ASCII Video Chat</tspan>
        </text>
    </g>
</svg>