<?xml version="1.0" encoding="UTF-8"?>
<svg width="600px" height="600px" viewBox="0 0 600 600" version="1.1" xmlns="http://www.w3.org/2000/svg" xmlns:xlink="http://www.w3.org/1999/xlink">
    <title>Askey Copy 3</title>
    <defs>
        <linearGradient x1="-12.1536577%" y1="49.5984253%" x2="104.280769%" y2="50%" id="linearGradient-1">
            <stop stop-color="#0066D9" offset="0%"></stop>
            <stop stop-color="#CEE4FC" offset="100%"></stop>
        </linearGradient>
    </defs>
    <g id="Askey-Copy-3" stroke="none" stroke-width="1" fill="none" fill-rule="evenodd">
        <rect id="Rectangle" fill="#FFFFFF" x="0" y="0" width="600" height="600"></rect>
        <path d="M182.5,347 C189.304878,347 195.563686,345.799731 201.276423,343.399194 C206.98916,340.998656 211.882791,337.692652 215.957317,333.481183 C220.031843,329.269713 223.224255,324.300179 225.534553,318.572581 C227.844851,312.844982 229,306.654122 229,300 C229,293.345878 227.844851,287.155018 225.534553,281.427419 C223.224255,275.699821 220.031843,270.730287 215.957317,266.518817 C211.882791,262.307348 206.98916,259.001344 201.276423,256.600806 C195.563686,254.200269 189.304878,253 182.5,253 C175.695122,253 169.436314,254.200269 163.723577,256.600806 C158.01084,259.001344 153.117209,262.307348 149.042683,266.518817 C144.968157,270.730287 141.775745,275.699821 139.465447,281.427419 C137.155149,287.155018 136,293.345878 136,300 C136,306.654122 137.155149,312.844982 139.465447,318.572581 C141.775745,324.300179 144.968157,329.269713 149.042683,333.481183 C153.117209,337.692652 158.01084,340.998656 163.723577,343.399194 C169.436314,345.799731 175.695122,347 182.5,347 Z M182.5,335 C177.397628,335 172.797129,334.055851 168.698502,332.167553 C164.599875,330.279255 161.086767,327.740544 158.159176,324.551418 C155.231586,321.362293 152.973159,317.606678 151.383895,313.284574 C149.794632,308.96247 149,304.367612 149,299.5 C149,294.632388 149.794632,290.03753 151.383895,285.715426 C152.973159,281.393322 155.231586,277.637707 158.159176,274.448582 C161.086767,271.259456 164.599875,268.720745 168.698502,266.832447 C172.797129,264.944149 177.397628,264 182.5,264 C187.602372,264 192.202871,264.944149 196.301498,266.832447 C200.400125,268.720745 203.913233,271.259456 206.840824,274.448582 C209.768414,277.637707 212.026841,281.393322 213.616105,285.715426 C215.205368,290.03753 216,294.632388 216,299.5 C216,304.367612 215.205368,308.96247 213.616105,313.284574 C212.026841,317.606678 209.768414,321.362293 206.840824,324.551418 C203.913233,327.740544 200.400125,330.279255 196.301498,332.167553 C192.202871,334.055851 187.602372,335 182.5,335 Z M265.704762,346 C270.331746,346 274.411905,345.016804 277.945238,343.050412 C281.478571,341.084019 283.960317,338.510974 285.390476,335.331276 L285.390476,335.331276 L285.642857,335.331276 L285.642857,344.493827 L297,344.493827 L297,285 L285.642857,285 L285.642857,315.625514 C285.642857,319.056241 285.222222,322.026749 284.380952,324.537037 C283.539683,327.047325 282.361905,329.118313 280.847619,330.75 C279.333333,332.381687 277.566667,333.574074 275.547619,334.32716 C273.528571,335.080247 271.34127,335.45679 268.985714,335.45679 C267.219048,335.45679 265.515476,335.184842 263.875,334.640947 C262.234524,334.097051 260.783333,333.21845 259.521429,332.005144 C258.259524,330.791838 257.25,329.201989 256.492857,327.235597 C255.735714,325.269204 255.357143,322.90535 255.357143,320.144033 L255.357143,320.144033 L255.357143,285 L244,285 L244,323.281893 C244,327.214678 244.588889,330.624486 245.766667,333.511317 C246.944444,336.398148 248.521825,338.762003 250.49881,340.602881 C252.475794,342.443759 254.768254,343.803498 257.37619,344.682099 C259.984127,345.5607 262.760317,346 265.704762,346 Z M335.812883,346 C336.986708,346 338.642638,345.852989 340.780675,345.558966 C342.918712,345.264943 344.658487,344.739903 346,343.983845 L346,343.983845 L346,333.65105 C344.826176,334.323102 343.526585,334.785137 342.101227,335.037157 C340.675869,335.289176 339.292434,335.415186 337.95092,335.415186 C335.770961,335.415186 334.115031,335.016155 332.983129,334.218094 C331.851227,333.420032 331.012781,332.369952 330.467791,331.067851 C329.922802,329.765751 329.608384,328.295638 329.52454,326.657512 C329.440695,325.019386 329.398773,323.360258 329.398773,321.680129 L329.398773,321.680129 L329.398773,294.588045 L345.622699,294.588045 L345.622699,284.759289 L329.398773,284.759289 L329.398773,268 L318.079755,268 L318.079755,284.759289 L305,284.759289 L305,294.588045 L318.079755,294.588045 L318.079755,325.712439 C318.079755,328.148627 318.18456,330.563813 318.394172,332.957997 C318.603783,335.352181 319.27454,337.515347 320.406442,339.447496 C321.538344,341.379645 323.29908,342.954766 325.68865,344.172859 C328.078221,345.390953 331.452965,346 335.812883,346 Z M370.49635,344 L370.49635,314.127572 C370.49635,307.600823 371.986618,302.789438 374.967153,299.693416 C377.947689,296.597394 382.248175,295.049383 387.868613,295.049383 C388.805353,295.049383 389.742092,295.133059 390.678832,295.300412 C391.615572,295.467764 392.552311,295.676955 393.489051,295.927984 L393.489051,295.927984 L394,283.753086 C392.467153,283.251029 390.76399,283 388.890511,283 C387.017032,283 385.143552,283.271948 383.270073,283.815844 C381.396594,284.359739 379.672141,285.091907 378.096715,286.012346 C376.52129,286.932785 375.094891,288.041495 373.817518,289.338477 C372.540146,290.63546 371.518248,292.078875 370.751825,293.668724 L370.751825,293.668724 L370.49635,293.668724 L370.49635,284.506173 L359,284.506173 L359,344 L370.49635,344 Z M433,346 C437.486772,346 441.677249,345.177711 445.571429,343.533133 C449.465608,341.888554 452.851852,339.653614 455.730159,336.828313 C458.608466,334.003012 460.873016,330.671687 462.52381,326.834337 C464.174603,322.996988 465,318.885542 465,314.5 C465,310.114458 464.174603,306.024096 462.52381,302.228916 C460.873016,298.433735 458.608466,295.10241 455.730159,292.23494 C452.851852,289.36747 449.465608,287.111446 445.571429,285.466867 C441.677249,283.822289 437.486772,283 433,283 C428.513228,283 424.322751,283.822289 420.428571,285.466867 C416.534392,287.111446 413.148148,289.36747 410.269841,292.23494 C407.391534,295.10241 405.126984,298.433735 403.47619,302.228916 C401.825397,306.024096 401,310.114458 401,314.5 C401,318.885542 401.825397,322.996988 403.47619,326.834337 C405.126984,330.671687 407.391534,334.003012 410.269841,336.828313 C413.148148,339.653614 416.534392,341.888554 420.428571,343.533133 C424.322751,345.177711 428.513228,346 433,346 Z M432.5,336 C429.5,336 426.791667,335.469697 424.375,334.409091 C421.958333,333.348485 419.916667,331.906061 418.25,330.081818 C416.583333,328.257576 415.291667,326.051515 414.375,323.463636 C413.458333,320.875758 413,318.054545 413,315 C413,311.945455 413.458333,309.124242 414.375,306.536364 C415.291667,303.948485 416.583333,301.742424 418.25,299.918182 C419.916667,298.093939 421.958333,296.651515 424.375,295.590909 C426.791667,294.530303 429.5,294 432.5,294 C435.5,294 438.208333,294.530303 440.625,295.590909 C443.041667,296.651515 445.083333,298.093939 446.75,299.918182 C448.416667,301.742424 449.708333,303.948485 450.625,306.536364 C451.541667,309.124242 452,311.945455 452,315 C452,318.054545 451.541667,320.875758 450.625,323.463636 C449.708333,326.051515 448.416667,328.257576 446.75,330.081818 C445.083333,331.906061 443.041667,333.348485 440.625,334.409091 C438.208333,335.469697 435.5,336 432.5,336 Z" id="Outro" fill="url(#linearGradient-1)" fill-rule="nonzero"></path>
    </g>
</svg>