<?xml version="1.0" encoding="UTF-8"?>
<svg width="600px" height="600px" viewBox="0 0 600 600" version="1.1" xmlns="http://www.w3.org/2000/svg" xmlns:xlink="http://www.w3.org/1999/xlink">
    <title>Askey</title>
    <g id="Askey" stroke="none" stroke-width="1" fill="none" fill-rule="evenodd">
        <rect fill="#252525" x="0" y="0" width="600" height="600"></rect>
        <g id="background" opacity="0.129882812" transform="translate(-10.000000, 98.000000)" fill="#FFFFFF">
            <path d="M292.997199,228.193548 L297.546218,228.193548 L290.722689,250.935484 C290.506068,251.634412 290.330066,252.346771 290.194678,253.072581 C290.05929,253.798391 289.991597,254.456986 289.991597,255.048387 C289.991597,255.478497 290.15406,255.854837 290.478992,256.177419 C290.803923,256.5 291.264236,256.66129 291.859944,256.66129 C293.267981,256.66129 294.703074,256.163983 296.165266,255.169355 C297.627458,254.174726 298.940704,252.857535 300.105042,251.217742 C301.26938,249.577949 302.230622,247.709688 302.988796,245.612903 C303.746969,243.516119 304.12605,241.338721 304.12605,239.080645 C304.12605,236.016114 303.476197,233.220443 302.176471,230.693548 C300.876744,228.166654 299.15734,225.989256 297.018207,224.16129 C294.879074,222.333324 292.442124,220.908607 289.707283,219.887097 C286.972442,218.865586 284.197026,218.354839 281.380952,218.354839 C277.86086,218.354839 274.557438,219.067197 271.470588,220.491935 C268.383738,221.916674 265.689554,223.811816 263.387955,226.177419 C261.086356,228.543023 259.258644,231.27149 257.904762,234.362903 C256.55088,237.454317 255.87395,240.66665 255.87395,244 C255.87395,247.33335 256.55088,250.545683 257.904762,253.637097 C259.258644,256.72851 261.086356,259.456977 263.387955,261.822581 C265.689554,264.188184 268.383738,266.083326 271.470588,267.508065 C274.557438,268.932803 277.86086,269.645161 281.380952,269.645161 C285.442597,269.645161 289.328179,268.784955 293.037815,267.064516 C296.747451,265.344077 299.712407,262.951628 301.932773,259.887097 L307.05042,259.887097 C305.750694,262.091409 304.180215,264.067196 302.338936,265.814516 C300.497657,267.561837 298.466865,269.040317 296.246499,270.25 C294.026133,271.459683 291.656875,272.387094 289.138655,273.032258 C286.620436,273.677423 284.03456,274 281.380952,274 C277.210997,274 273.284799,273.233879 269.602241,271.701613 C265.919683,270.169347 262.697493,268.045712 259.935574,265.330645 C257.173656,262.615578 254.993939,259.430126 253.396359,255.774194 C251.798778,252.118261 251,248.193569 251,244 C251,239.806431 251.798778,235.881739 253.396359,232.225806 C254.993939,228.569874 257.173656,225.384422 259.935574,222.669355 C262.697493,219.954288 265.919683,217.830653 269.602241,216.298387 C273.284799,214.766121 277.210997,214 281.380952,214 C285.117666,214 288.664782,214.604833 292.022409,215.814516 C295.380035,217.0242 298.317915,218.731172 300.836134,220.935484 C303.354354,223.139796 305.344531,225.760738 306.806723,228.798387 C308.268915,231.836037 309,235.155896 309,238.758065 C309,242.252706 308.363685,245.397835 307.091036,248.193548 C305.818388,250.989261 304.247909,253.38171 302.379552,255.370968 C300.511195,257.360225 298.493942,258.879027 296.327731,259.927419 C294.16152,260.975812 292.157806,261.5 290.316527,261.5 C288.691869,261.5 287.392162,261.12366 286.417367,260.370968 C285.442572,259.618276 284.846873,258.40861 284.630252,256.741935 L284.467787,256.741935 C283.222216,258.032265 281.8142,259.147845 280.243697,260.08871 C278.673195,261.029575 276.696557,261.5 274.313725,261.5 C270.847788,261.5 268.058834,260.38442 265.946779,258.153226 C263.834723,255.922032 262.778711,253.005394 262.778711,249.403226 C262.778711,246.607513 263.225486,243.852164 264.119048,241.137097 C265.01261,238.422029 266.298778,235.989258 267.977591,233.83871 C269.656404,231.688161 271.660119,229.954308 273.988796,228.637097 C276.317472,227.319886 278.916886,226.66129 281.787115,226.66129 C283.79086,226.66129 285.618573,227.145156 287.270308,228.112903 C288.922044,229.08065 290.181135,230.801063 291.047619,233.274194 L291.210084,233.274194 L292.997199,228.193548 Z M288.366947,239.564516 C288.366947,238.435478 288.177406,237.373661 287.798319,236.379032 C287.419232,235.384404 286.931842,234.524197 286.336134,233.798387 C285.740427,233.072577 285.049957,232.508067 284.264706,232.104839 C283.479455,231.701611 282.653599,231.5 281.787115,231.5 C279.837525,231.607527 278.023351,232.21236 276.344538,233.314516 C274.665725,234.416672 273.217093,235.814508 271.998599,237.508065 C270.780106,239.201621 269.832403,241.056442 269.155462,243.072581 C268.478521,245.08872 268.140056,247.037625 268.140056,248.919355 C268.140056,251.177431 268.857603,253.032251 270.292717,254.483871 C271.727832,255.935491 273.555544,256.66129 275.77591,256.66129 C277.563034,256.66129 279.214745,256.083339 280.731092,254.927419 C282.24744,253.7715 283.574224,252.333342 284.711485,250.612903 C285.848745,248.892465 286.742294,247.037644 287.392157,245.048387 C288.04202,243.05913 288.366947,241.231191 288.366947,239.564516 Z" id="@"></path>
            <polygon id="/" points="3.06111111 137 0 136.004032 15.9916667 98 19 99.0483871"></polygon>
            <path d="M445.25,250.739496 L440.75,250.739496 L440.75,231 L445.25,231 L445.25,250.739496 Z M440,256.913165 C440,256.046681 440.293747,255.302057 440.88125,254.679272 C441.468753,254.056486 442.174996,253.745098 443,253.745098 C443.800004,253.745098 444.5,254.042948 445.1,254.638655 C445.700003,255.234363 446,255.965449 446,256.831933 C446,257.698417 445.706253,258.443041 445.11875,259.065826 C444.531247,259.688612 443.825004,260 443,260 C442.599998,260 442.218752,259.918768 441.85625,259.756303 C441.493748,259.593837 441.175001,259.377219 440.9,259.106443 C440.624999,258.835666 440.406251,258.51074 440.24375,258.131653 C440.081249,257.752566 440,257.346407 440,256.913165 Z" id="!"></path>
            <path d="M370.567568,46.4822404 L370.567568,44.3032787 C370.567568,43.7222193 370.601351,43.2270057 370.668919,42.817623 C370.736487,42.4082402 370.858107,42.0384807 371.033784,41.7083333 C371.20946,41.378186 371.439188,41.0612492 371.722973,40.7575137 C372.006758,40.4537781 372.351349,40.0906214 372.756757,39.6680328 L375.878378,36.5778689 C376.554057,35.9175741 376.891892,35.0592038 376.891892,34.0027322 C376.891892,32.9726724 376.547301,32.1341107 375.858108,31.4870219 C375.168915,30.839933 374.297303,30.5163934 373.243243,30.5163934 C372.108102,30.5163934 371.175679,30.8927558 370.445946,31.6454918 C369.716213,32.3982278 369.297298,33.3160237 369.189189,34.3989071 L364,34.0027322 C364.162163,32.7349663 364.5,31.6058793 365.013514,30.6154372 C365.52703,29.624995 366.195942,28.7864333 367.02027,28.0997268 C367.844599,27.4130202 368.797292,26.8913952 369.878378,26.5348361 C370.959465,26.1782769 372.148642,26 373.445946,26 C374.662168,26 375.790535,26.1716741 376.831081,26.5150273 C377.871627,26.8583806 378.777023,27.3535942 379.547297,28.0006831 C380.317571,28.6477719 380.918917,29.4533194 381.351351,30.4173497 C381.783786,31.38138 382,32.4840557 382,33.7254098 C382,34.5969989 381.87838,35.3629293 381.635135,36.023224 C381.391891,36.6835188 381.06757,37.2909808 380.662162,37.8456284 C380.256755,38.400276 379.790543,38.9285039 379.263514,39.4303279 C378.736484,39.9321519 378.175679,40.4603797 377.581081,41.0150273 C377.202701,41.3583806 376.87838,41.6621116 376.608108,41.9262295 C376.337836,42.1903474 376.114866,42.4610642 375.939189,42.738388 C375.763513,43.0157118 375.635136,43.3326485 375.554054,43.6892077 C375.472973,44.0457668 375.432432,44.474952 375.432432,44.976776 L375.432432,46.4822404 L370.567568,46.4822404 Z M369.756757,51.989071 C369.756757,51.1438938 370.074321,50.4175805 370.709459,49.8101093 C371.344598,49.2026381 372.108104,48.8989071 373,48.8989071 C373.864869,48.8989071 374.621618,49.1894324 375.27027,49.7704918 C375.918922,50.3515512 376.243243,51.0646588 376.243243,51.9098361 C376.243243,52.7550133 375.925679,53.4813267 375.290541,54.0887978 C374.655402,54.696269 373.891896,55 373,55 C372.567565,55 372.155407,54.9207658 371.763514,54.7622951 C371.37162,54.6038243 371.027029,54.3925332 370.72973,54.1284153 C370.432431,53.8642974 370.195947,53.5473607 370.02027,53.1775956 C369.844594,52.8078306 369.756757,52.4116597 369.756757,51.989071 Z" id="?"></path>
            <path d="M370.567568,46.4822404 L370.567568,44.3032787 C370.567568,43.7222193 370.601351,43.2270057 370.668919,42.817623 C370.736487,42.4082402 370.858107,42.0384807 371.033784,41.7083333 C371.20946,41.378186 371.439188,41.0612492 371.722973,40.7575137 C372.006758,40.4537781 372.351349,40.0906214 372.756757,39.6680328 L375.878378,36.5778689 C376.554057,35.9175741 376.891892,35.0592038 376.891892,34.0027322 C376.891892,32.9726724 376.547301,32.1341107 375.858108,31.4870219 C375.168915,30.839933 374.297303,30.5163934 373.243243,30.5163934 C372.108102,30.5163934 371.175679,30.8927558 370.445946,31.6454918 C369.716213,32.3982278 369.297298,33.3160237 369.189189,34.3989071 L364,34.0027322 C364.162163,32.7349663 364.5,31.6058793 365.013514,30.6154372 C365.52703,29.624995 366.195942,28.7864333 367.02027,28.0997268 C367.844599,27.4130202 368.797292,26.8913952 369.878378,26.5348361 C370.959465,26.1782769 372.148642,26 373.445946,26 C374.662168,26 375.790535,26.1716741 376.831081,26.5150273 C377.871627,26.8583806 378.777023,27.3535942 379.547297,28.0006831 C380.317571,28.6477719 380.918917,29.4533194 381.351351,30.4173497 C381.783786,31.38138 382,32.4840557 382,33.7254098 C382,34.5969989 381.87838,35.3629293 381.635135,36.023224 C381.391891,36.6835188 381.06757,37.2909808 380.662162,37.8456284 C380.256755,38.400276 379.790543,38.9285039 379.263514,39.4303279 C378.736484,39.9321519 378.175679,40.4603797 377.581081,41.0150273 C377.202701,41.3583806 376.87838,41.6621116 376.608108,41.9262295 C376.337836,42.1903474 376.114866,42.4610642 375.939189,42.738388 C375.763513,43.0157118 375.635136,43.3326485 375.554054,43.6892077 C375.472973,44.0457668 375.432432,44.474952 375.432432,44.976776 L375.432432,46.4822404 L370.567568,46.4822404 Z M369.756757,51.989071 C369.756757,51.1438938 370.074321,50.4175805 370.709459,49.8101093 C371.344598,49.2026381 372.108104,48.8989071 373,48.8989071 C373.864869,48.8989071 374.621618,49.1894324 375.27027,49.7704918 C375.918922,50.3515512 376.243243,51.0646588 376.243243,51.9098361 C376.243243,52.7550133 375.925679,53.4813267 375.290541,54.0887978 C374.655402,54.696269 373.891896,55 373,55 C372.567565,55 372.155407,54.9207658 371.763514,54.7622951 C371.37162,54.6038243 371.027029,54.3925332 370.72973,54.1284153 C370.432431,53.8642974 370.195947,53.5473607 370.02027,53.1775956 C369.844594,52.8078306 369.756757,52.4116597 369.756757,51.989071 Z" id="?-copy-2"></path>
            <path d="M142.405405,388.2 L142.405405,384.029787 C142.405405,382.917725 142.469219,381.969959 142.596847,381.18646 C142.724475,380.402962 142.954203,379.695297 143.286036,379.063443 C143.61787,378.431589 144.051799,377.825019 144.587838,377.243714 C145.123877,376.662408 145.774771,375.96738 146.540541,375.158607 L152.436937,369.244487 C153.71322,367.98078 154.351351,366.337986 154.351351,364.316054 C154.351351,362.344671 153.700457,360.739787 152.398649,359.501354 C151.09684,358.262921 149.45046,357.643714 147.459459,357.643714 C145.315305,357.643714 143.554061,358.364016 142.175676,359.804642 C140.79729,361.245268 140.006007,363.001795 139.801802,365.074275 L130,364.316054 C130.306308,361.889736 130.94444,359.72883 131.914414,357.833269 C132.884389,355.937708 134.14789,354.332824 135.704955,353.018569 C137.26202,351.704313 139.061551,350.706 141.103604,350.023598 C143.145656,349.341196 145.39188,349 147.842342,349 C150.139651,349 152.271011,349.328559 154.236486,349.985687 C156.201962,350.642814 157.912155,351.590581 159.367117,352.829014 C160.822079,354.067447 161.957954,355.609146 162.774775,357.454159 C163.591596,359.299171 164,361.40953 164,363.7853 C164,365.453393 163.770273,366.919272 163.310811,368.182979 C162.851349,369.446686 162.238743,370.609279 161.472973,371.670793 C160.707203,372.732307 159.826582,373.743258 158.831081,374.703675 C157.835581,375.664092 156.776282,376.675043 155.653153,377.736557 C154.938435,378.393685 154.325828,378.974981 153.815315,379.480464 C153.304802,379.985947 152.883635,380.504059 152.551802,381.034816 C152.219968,381.565573 151.977478,382.172144 151.824324,382.854545 C151.67117,383.536947 151.594595,384.358345 151.594595,385.318762 L151.594595,388.2 L142.405405,388.2 Z M141.333333,399.077922 C141.333333,397.415576 141.927821,395.987019 143.116815,394.792208 C144.30581,393.597397 145.735111,393 147.404762,393 C149.023818,393 150.44047,393.571423 151.654762,394.714286 C152.869054,395.857149 153.47619,397.259732 153.47619,398.922078 C153.47619,400.584424 152.881702,402.012981 151.692708,403.207792 C150.503714,404.402603 149.074413,405 147.404762,405 C146.595234,405 145.823664,404.844157 145.09003,404.532468 C144.356395,404.220778 143.711312,403.805197 143.154762,403.285714 C142.598212,402.766231 142.155508,402.142861 141.826637,401.415584 C141.497766,400.688308 141.333333,399.909095 141.333333,399.077922 Z" id="?-copy"></path>
            <path d="M164,113.962963 C164,112.382708 164.594488,111.024697 165.783482,109.888889 C166.972476,108.753081 168.401777,108.185185 170.071429,108.185185 C171.690484,108.185185 173.107137,108.72839 174.321429,109.814815 C175.53572,110.90124 176.142857,112.23456 176.142857,113.814815 C176.142857,115.39507 175.548369,116.753081 174.359375,117.888889 C173.170381,119.024697 171.74108,119.592593 170.071429,119.592593 C169.261901,119.592593 168.490331,119.444446 167.756696,119.148148 C167.023062,118.85185 166.377979,118.456793 165.821429,117.962963 C165.264878,117.469133 164.822174,116.876547 164.493304,116.185185 C164.164433,115.493824 164,114.75309 164,113.962963 Z M164,88.7037037 C164,87.1234489 164.594488,85.7654378 165.783482,84.6296296 C166.972476,83.4938215 168.401777,82.9259259 170.071429,82.9259259 C171.690484,82.9259259 173.107137,83.4691304 174.321429,84.5555556 C175.53572,85.6419807 176.142857,86.9753007 176.142857,88.5555556 C176.142857,90.1358104 175.548369,91.4938215 174.359375,92.6296296 C173.170381,93.7654378 171.74108,94.3333333 170.071429,94.3333333 C169.261901,94.3333333 168.490331,94.1851867 167.756696,93.8888889 C167.023062,93.5925911 166.377979,93.1975333 165.821429,92.7037037 C165.264878,92.2098741 164.822174,91.6172874 164.493304,90.9259259 C164.164433,90.2345644 164,89.4938311 164,88.7037037 Z M181,127.135135 L181.073593,126.837838 C184.017331,122.675655 186.323224,118.104755 187.991342,113.125 C189.65946,108.145245 190.493506,103.103629 190.493506,98 C190.493506,92.8468211 189.65946,87.7928176 187.991342,82.8378378 C186.323224,77.8828581 184.017331,73.3243451 181.073593,69.1621622 L187.255411,65 C190.64071,69.7072307 193.277768,74.8603324 195.166667,80.4594595 C197.055565,86.0585866 198,91.9053749 198,98 C198,104.045075 197.055565,109.879476 195.166667,115.503378 C193.277768,121.12728 190.64071,126.292769 187.255411,131 L181,127.135135 Z" id=":)"></path>
            <path d="M56.6802326,246.658228 L57.0465116,246.658228 C58.4302395,246.658228 59.847861,246.89317 61.2994186,247.363061 C62.7509763,247.832952 63.9922429,248.524353 65.0232558,249.437284 L61.6453488,253.182969 C61.0213147,252.511696 60.2751981,251.981398 59.4069767,251.59206 C58.5387553,251.202721 57.6298497,251.008055 56.6802326,251.008055 L56.6802326,259.063291 L56.8430233,259.103567 C57.9825638,259.398927 59.1017387,259.734559 60.2005814,260.110472 C61.2994241,260.486385 62.2761585,260.976407 63.130814,261.580552 C63.9854694,262.184698 64.6773229,262.943225 65.2063953,263.856157 C65.7354678,264.769088 66,265.910235 66,267.279632 C66,268.622178 65.7558164,269.810313 65.2674419,270.844074 C64.7790673,271.877834 64.1143453,272.763901 63.2732558,273.502301 C62.4321663,274.240702 61.448649,274.824701 60.3226744,275.254315 C59.1966998,275.68393 57.9825647,275.96586 56.6802326,276.100115 L56.6802326,279 L54.4825581,279 L54.4825581,276.140391 C52.6918515,276.167242 50.9757834,275.898737 49.3343023,275.334868 C47.6928212,274.770998 46.2480683,273.844655 45,272.555811 L48.7034884,268.810127 C49.3546544,269.723058 50.1957313,270.421171 51.2267442,270.904488 C52.2577571,271.387804 53.3430176,271.68316 54.4825581,271.790564 L54.4825581,263.29229 L54.2790698,263.252014 C53.1395292,262.929803 52.0542687,262.574033 51.0232558,262.184695 C49.9922429,261.795357 49.0765544,261.285197 48.2761628,260.6542 C47.4757712,260.023204 46.8449635,259.257964 46.3837209,258.358458 C45.9224783,257.458952 45.6918605,256.337943 45.6918605,254.995397 C45.6918605,253.787106 45.9360441,252.69966 46.4244186,251.733026 C46.9127931,250.766393 47.5639494,249.927315 48.377907,249.215765 C49.1918645,248.504216 50.1279017,247.933642 51.1860465,247.504028 C52.2441913,247.074413 53.3430176,246.805908 54.4825581,246.698504 L54.4825581,244 L56.6802326,244 L56.6802326,246.658228 Z M54.4825581,251.088608 C53.532941,251.249713 52.6850813,251.645758 51.9389535,252.276755 C51.1928257,252.907752 50.8197674,253.733405 50.8197674,254.75374 C50.8197674,255.371311 50.9215106,255.868046 51.125,256.243959 C51.3284894,256.619871 51.5930216,256.942078 51.9186047,257.210587 C52.2441877,257.479096 52.6308117,257.700613 53.0784884,257.875144 C53.526165,258.049675 53.9941836,258.244341 54.4825581,258.459148 L54.4825581,251.088608 Z M56.6802326,271.790564 C57.2500028,271.68316 57.7858502,271.515344 58.2877907,271.287112 C58.7897312,271.058879 59.2306183,270.776948 59.6104651,270.441312 C59.990312,270.105675 60.2955415,269.702918 60.5261628,269.233026 C60.7567841,268.763135 60.872093,268.232838 60.872093,267.642117 C60.872093,267.051397 60.7432183,266.554663 60.4854651,266.151899 C60.2277119,265.749135 59.8953509,265.413503 59.4883721,265.144994 C59.0813933,264.876485 58.6337234,264.648256 58.1453488,264.460299 C57.6569743,264.272343 57.1686071,264.097814 56.6802326,263.936709 L56.6802326,271.790564 Z" id="$"></path>
            <polygon id="&lt;" points="52 11.9482759 52 9.05172414 73 0 73 4.42528736 58.972332 10.5 73 16.5747126 73 21"></polygon>
            <path d="M412.727273,370.2 C412.727273,369.361286 412.886729,368.581724 413.205645,367.86129 C413.524562,367.140857 413.96444,366.506454 414.525293,365.958065 C415.086146,365.409675 415.734967,364.979571 416.471774,364.667742 C417.208581,364.355912 418.005861,364.2 418.863636,364.2 C419.721412,364.2 420.518691,364.355912 421.255499,364.667742 C421.992306,364.979571 422.641126,365.409675 423.201979,365.958065 C423.762833,366.506454 424.202711,367.140857 424.521628,367.86129 C424.840544,368.581724 425,369.361286 425,370.2 C425,371.038714 424.840544,371.818276 424.521628,372.53871 C424.202711,373.259143 423.762833,373.893546 423.201979,374.441935 C422.641126,374.990325 421.992306,375.420429 421.255499,375.732258 C420.518691,376.044088 419.721412,376.2 418.863636,376.2 C418.005861,376.2 417.208581,376.044088 416.471774,375.732258 C415.734967,375.420429 415.086146,374.990325 414.525293,374.441935 C413.96444,373.893546 413.524562,373.259143 413.205645,372.53871 C412.886729,371.818276 412.727273,371.038714 412.727273,370.2 Z M421.727273,371 C421.727273,370.211848 421.451518,369.548151 420.9,369.008889 C420.348482,368.469627 419.669701,368.2 418.863636,368.2 C418.057572,368.2 417.378791,368.469627 416.827273,369.008889 C416.275755,369.548151 416,370.211848 416,371 C416,371.788152 416.275755,372.451849 416.827273,372.991111 C417.378791,373.530373 418.057572,373.8 418.863636,373.8 C419.669701,373.8 420.348482,373.530373 420.9,372.991111 C421.451518,372.451849 421.727273,371.788152 421.727273,371 Z M398,359.8 C398,358.961286 398.159456,358.181724 398.478372,357.46129 C398.797289,356.740857 399.237167,356.106454 399.798021,355.558065 C400.358874,355.009675 401.007694,354.579571 401.744501,354.267742 C402.481309,353.955912 403.278588,353.8 404.136364,353.8 C404.994139,353.8 405.791419,353.955912 406.528226,354.267742 C407.265033,354.579571 407.913854,355.009675 408.474707,355.558065 C409.03556,356.106454 409.475438,356.740857 409.794355,357.46129 C410.113271,358.181724 410.272727,358.961286 410.272727,359.8 C410.272727,360.638714 410.113271,361.418276 409.794355,362.13871 C409.475438,362.859143 409.03556,363.493546 408.474707,364.041935 C407.913854,364.590325 407.265033,365.020429 406.528226,365.332258 C405.791419,365.644088 404.994139,365.8 404.136364,365.8 C403.278588,365.8 402.481309,365.644088 401.744501,365.332258 C401.007694,365.020429 400.358874,364.590325 399.798021,364.041935 C399.237167,363.493546 398.797289,362.859143 398.478372,362.13871 C398.159456,361.418276 398,360.638714 398,359.8 Z M407,359 C407,358.211848 406.724245,357.548151 406.172727,357.008889 C405.621209,356.469627 404.942428,356.2 404.136364,356.2 C403.330299,356.2 402.651518,356.469627 402.1,357.008889 C401.548482,357.548151 401.272727,358.211848 401.272727,359 C401.272727,359.788152 401.548482,360.451849 402.1,360.991111 C402.651518,361.530373 403.330299,361.8 404.136364,361.8 C404.942428,361.8 405.621209,361.530373 406.172727,360.991111 C406.724245,360.451849 407,359.788152 407,359 Z M417.369102,353 L420.090909,354.181347 L406.44908,377 L403.727273,375.818653 L417.369102,353 Z" id="%"></path>
            <path d="M551.010417,311.357259 L558,311.357259 L553.130208,326 L547,326 L551.010417,311.357259 Z M548.71875,296.326264 C548.71875,295.143007 549.16753,294.12616 550.065104,293.275693 C550.962678,292.425227 552.04166,292 553.302083,292 C554.524312,292 555.593745,292.406739 556.510417,293.220228 C557.427088,294.033718 557.885417,295.032077 557.885417,296.215334 C557.885417,297.398592 557.436636,298.415439 556.539062,299.265905 C555.641489,300.116372 554.562506,300.541599 553.302083,300.541599 C552.690969,300.541599 552.10851,300.43067 551.554688,300.208809 C551.000865,299.986948 550.513891,299.691138 550.09375,299.32137 C549.673609,298.951602 549.339411,298.507887 549.091146,297.990212 C548.842881,297.472537 548.71875,296.917893 548.71875,296.326264 Z" id=";"></path>
            <path d="M619,129 L619,137.8 L571,137.8 L571,129 L619,129 Z M619,144.2 L619,153 L571,153 L571,144.2 L619,144.2 Z" id="="></path>
        </g>
        <path d="M134.32687,321 L139.468144,308.186441 L164.130194,308.186441 L169.432133,321 L181,321 L156.498615,265 L147.742382,265 L123,321 L134.32687,321 Z M160,300 L142,300 L151.081818,277 L160,300 Z M197.187817,322 C199.191201,322 201.194585,321.78836 203.19797,321.365079 C205.201354,320.941799 207.001692,320.253968 208.598985,319.301587 C210.196277,318.349206 211.49577,317.092593 212.497462,315.531746 C213.499154,313.970899 214,312.05291 214,309.777778 C214,307.291005 213.485618,305.333333 212.456853,303.904762 C211.428088,302.47619 210.128596,301.351852 208.558376,300.531746 C206.988156,299.71164 205.296108,299.103175 203.482234,298.706349 C201.668359,298.309524 199.976311,297.925926 198.406091,297.555556 C196.835871,297.185185 195.536379,296.73545 194.507614,296.206349 C193.478849,295.677249 192.964467,294.830688 192.964467,293.666667 C192.964467,292.238095 193.58714,291.206349 194.832487,290.571429 C196.077834,289.936508 197.350254,289.619048 198.649746,289.619048 C201.844332,289.619048 204.389171,290.915344 206.284264,293.507937 L206.284264,293.507937 L212.781726,287.793651 C211.211506,285.677249 209.153976,284.18254 206.609137,283.309524 C204.064298,282.436508 201.492386,282 198.893401,282 C196.944162,282 195.021997,282.238095 193.126904,282.714286 C191.23181,283.190476 189.553299,283.931217 188.091371,284.936508 C186.629442,285.941799 185.451777,287.224868 184.558376,288.785714 C183.664975,290.346561 183.218274,292.185185 183.218274,294.301587 C183.218274,296.73545 183.732657,298.640212 184.761421,300.015873 C185.790186,301.391534 187.089679,302.462963 188.659898,303.230159 C190.230118,303.997354 191.922166,304.55291 193.736041,304.896825 C195.549915,305.240741 197.241963,305.611111 198.812183,306.007937 C200.382403,306.404762 201.681895,306.920635 202.71066,307.555556 C203.739425,308.190476 204.253807,309.169312 204.253807,310.492063 C204.253807,311.232804 204.050761,311.880952 203.64467,312.436508 C203.238579,312.992063 202.71066,313.455026 202.060914,313.825397 C201.411168,314.195767 200.707276,314.460317 199.949239,314.619048 C199.191201,314.777778 198.460237,314.857143 197.756345,314.857143 C195.698816,314.857143 193.952623,314.420635 192.517766,313.547619 C191.08291,312.674603 189.742809,311.550265 188.497462,310.174603 L188.497462,310.174603 L182,316.126984 C184.003384,318.349206 186.277496,319.883598 188.822335,320.730159 C191.367174,321.57672 194.155668,322 197.187817,322 Z M233.187817,322 C235.191201,322 237.194585,321.78836 239.19797,321.365079 C241.201354,320.941799 243.001692,320.253968 244.598985,319.301587 C246.196277,318.349206 247.49577,317.092593 248.497462,315.531746 C249.499154,313.970899 250,312.05291 250,309.777778 C250,307.291005 249.485618,305.333333 248.456853,303.904762 C247.428088,302.47619 246.128596,301.351852 244.558376,300.531746 C242.988156,299.71164 241.296108,299.103175 239.482234,298.706349 C237.668359,298.309524 235.976311,297.925926 234.406091,297.555556 C232.835871,297.185185 231.536379,296.73545 230.507614,296.206349 C229.478849,295.677249 228.964467,294.830688 228.964467,293.666667 C228.964467,292.238095 229.58714,291.206349 230.832487,290.571429 C232.077834,289.936508 233.350254,289.619048 234.649746,289.619048 C237.844332,289.619048 240.389171,290.915344 242.284264,293.507937 L242.284264,293.507937 L248.781726,287.793651 C247.211506,285.677249 245.153976,284.18254 242.609137,283.309524 C240.064298,282.436508 237.492386,282 234.893401,282 C232.944162,282 231.021997,282.238095 229.126904,282.714286 C227.23181,283.190476 225.553299,283.931217 224.091371,284.936508 C222.629442,285.941799 221.451777,287.224868 220.558376,288.785714 C219.664975,290.346561 219.218274,292.185185 219.218274,294.301587 C219.218274,296.73545 219.732657,298.640212 220.761421,300.015873 C221.790186,301.391534 223.089679,302.462963 224.659898,303.230159 C226.230118,303.997354 227.922166,304.55291 229.736041,304.896825 C231.549915,305.240741 233.241963,305.611111 234.812183,306.007937 C236.382403,306.404762 237.681895,306.920635 238.71066,307.555556 C239.739425,308.190476 240.253807,309.169312 240.253807,310.492063 C240.253807,311.232804 240.050761,311.880952 239.64467,312.436508 C239.238579,312.992063 238.71066,313.455026 238.060914,313.825397 C237.411168,314.195767 236.707276,314.460317 235.949239,314.619048 C235.191201,314.777778 234.460237,314.857143 233.756345,314.857143 C231.698816,314.857143 229.952623,314.420635 228.517766,313.547619 C227.08291,312.674603 225.742809,311.550265 224.497462,310.174603 L224.497462,310.174603 L218,316.126984 C220.003384,318.349206 222.277496,319.883598 224.822335,320.730159 C227.367174,321.57672 230.155668,322 233.187817,322 Z M274.944444,322 C277.993827,322 280.909465,321.417989 283.691358,320.253968 C286.473251,319.089947 288.987654,317.132275 291.234568,314.380952 L291.234568,314.380952 L284.333333,309.222222 C283.102881,310.703704 281.671811,311.933862 280.040123,312.912698 C278.408436,313.891534 276.388889,314.380952 273.981481,314.380952 C271.253086,314.380952 268.925926,313.587302 267,312 C265.074074,310.412698 263.950617,308.190476 263.62963,305.333333 L263.62963,305.333333 L293,305.333333 L293,302.714286 C293,299.380952 292.558642,296.431217 291.675926,293.865079 C290.79321,291.298942 289.562757,289.142857 287.984568,287.396825 C286.406379,285.650794 284.507202,284.314815 282.287037,283.388889 C280.066872,282.462963 277.619342,282 274.944444,282 C272.055556,282 269.32716,282.47619 266.759259,283.428571 C264.191358,284.380952 261.971193,285.730159 260.098765,287.47619 C258.226337,289.222222 256.74177,291.325397 255.645062,293.785714 C254.548354,296.246032 254,298.984127 254,302 C254,305.015873 254.548354,307.753968 255.645062,310.214286 C256.74177,312.674603 258.226337,314.777778 260.098765,316.52381 C261.971193,318.269841 264.191358,319.619048 266.759259,320.571429 C269.32716,321.52381 272.055556,322 274.944444,322 Z M284,298 L264,298 C264.379404,295.263158 265.422764,293.078947 267.130081,291.447368 C268.837398,289.815789 271.154472,289 274.081301,289 C277.170732,289 279.582656,289.802632 281.317073,291.407895 C283.051491,293.013158 283.945799,295.210526 284,298 L284,298 Z M311.516129,321 L311.516129,300.231707 C311.516129,298.963415 311.674731,297.747967 311.991935,296.585366 C312.30914,295.422764 312.824597,294.392276 313.538306,293.493902 C314.252016,292.595528 315.150762,291.882114 316.234543,291.353659 C317.318324,290.825203 318.653226,290.560976 320.239247,290.560976 C322.565412,290.560976 324.230735,291.261179 325.235215,292.661585 C326.239695,294.061992 326.741935,295.95122 326.741935,298.329268 L326.741935,298.329268 L326.741935,321 L336.258065,321 L336.258065,300.390244 C336.258065,299.174797 336.40345,297.972561 336.69422,296.783537 C336.984991,295.594512 337.460797,294.537602 338.12164,293.612805 C338.782482,292.688008 339.62836,291.948171 340.659274,291.393293 C341.690188,290.838415 342.945789,290.560976 344.426075,290.560976 C345.853495,290.560976 347.016577,290.79878 347.915323,291.27439 C348.814068,291.75 349.527778,292.397358 350.056452,293.216463 C350.585125,294.035569 350.955197,294.986789 351.166667,296.070122 C351.378136,297.153455 351.483871,298.276423 351.483871,299.439024 L351.483871,299.439024 L351.483871,321 L361,321 L361,298.329268 C361,296.056911 360.762097,293.929878 360.28629,291.948171 C359.810484,289.966463 359.03069,288.235772 357.946909,286.756098 C356.863127,285.276423 355.448925,284.113821 353.704301,283.268293 C351.959677,282.422764 349.818548,282 347.280914,282 C344.426075,282 341.967742,282.568089 339.905914,283.704268 C337.844086,284.840447 336.125896,286.623984 334.751344,289.054878 C332.795251,284.351626 328.830197,282 322.856183,282 C319.68414,282 317.159722,282.700203 315.28293,284.10061 C313.406138,285.501016 312.044803,287.099593 311.198925,288.896341 L311.198925,288.896341 L311.040323,288.896341 L311.040323,282.95122 L302,282.95122 L302,321 L311.516129,321 Z M393.241313,322 C396.143501,322 398.75547,321.483724 401.07722,320.451172 C403.39897,319.41862 405.377735,318.00217 407.013514,316.201823 C408.649292,314.401476 409.889318,312.28342 410.733591,309.847656 C411.577864,307.411892 412,304.790799 412,301.984375 C412,299.177951 411.55148,296.556858 410.65444,294.121094 C409.7574,291.68533 408.504183,289.567274 406.894788,287.766927 C405.285393,285.96658 403.346203,284.55013 401.07722,283.517578 C398.808237,282.485026 396.328185,281.96875 393.637066,281.96875 C391.842986,281.96875 390.259974,282.15408 388.888031,282.52474 C387.516088,282.895399 386.302445,283.371962 385.247104,283.954427 C384.191763,284.536892 383.294723,285.159071 382.555985,285.820964 C381.817246,286.482856 381.210425,287.13151 380.735521,287.766927 L380.735521,287.766927 L380.498069,287.766927 L380.498069,261 L371,261 L371,321.046875 L380.023166,321.046875 L380.023166,315.328125 L380.181467,315.328125 C381.553411,317.657986 383.400257,319.352431 385.722008,320.411458 C388.043758,321.470486 390.550193,322 393.241313,322 Z M392,314 C390.283688,314 388.749409,313.680556 387.397163,313.041667 C386.044917,312.402778 384.887707,311.550926 383.925532,310.486111 C382.963357,309.421296 382.235225,308.196759 381.741135,306.8125 C381.247045,305.428241 381,303.990741 381,302.5 C381,301.009259 381.247045,299.571759 381.741135,298.1875 C382.235225,296.803241 382.963357,295.578704 383.925532,294.513889 C384.887707,293.449074 386.044917,292.597222 387.397163,291.958333 C388.749409,291.319444 390.283688,291 392,291 C393.716312,291 395.250591,291.319444 396.602837,291.958333 C397.955083,292.597222 399.112293,293.449074 400.074468,294.513889 C401.036643,295.578704 401.764775,296.803241 402.258865,298.1875 C402.752955,299.571759 403,301.009259 403,302.5 C403,303.990741 402.752955,305.428241 402.258865,306.8125 C401.764775,308.196759 401.036643,309.421296 400.074468,310.486111 C399.112293,311.550926 397.955083,312.402778 396.602837,313.041667 C395.250591,313.680556 393.716312,314 392,314 Z M430,321 L430,261 L421,261 L421,321 L430,321 Z M444.231969,340 C446.363223,340 448.188109,339.775694 449.706628,339.327083 C451.225146,338.878472 452.54386,338.192361 453.662768,337.26875 C454.781676,336.345139 455.754061,335.210417 456.579922,333.864583 C457.405783,332.51875 458.165042,330.948611 458.8577,329.154167 L458.8577,329.154167 L477,283 L467.009747,283 L457.419103,309.3625 L457.259259,309.3625 L446.549708,283 L436,283 L452.384016,321.316667 L450.545809,325.829167 C450.119558,326.831944 449.719948,327.689583 449.346979,328.402083 C448.974009,329.114583 448.507797,329.695139 447.948343,330.14375 C447.388889,330.592361 446.709552,330.922222 445.910331,331.133333 C445.111111,331.344444 444.125406,331.45 442.953216,331.45 C442.100715,331.45 441.261533,331.357639 440.435673,331.172917 C439.609812,330.988194 438.823912,330.763889 438.077973,330.5 L438.077973,330.5 L436.879142,339.05 C439.276803,339.683333 441.727745,340 444.231969,340 Z" id="Assembly" fill="#FFFFFF" fill-rule="nonzero"></path>
    </g>
</svg>