<?xml version="1.0" encoding="UTF-8"?>
<svg width="600px" height="600px" viewBox="0 0 600 600" version="1.1" xmlns="http://www.w3.org/2000/svg" xmlns:xlink="http://www.w3.org/1999/xlink">
    <title>Askey Copy 2</title>
    <defs>
        <linearGradient x1="50%" y1="0%" x2="50%" y2="100%" id="linearGradient-1">
            <stop stop-color="#CC1B8C" offset="0%"></stop>
            <stop stop-color="#5576D6" offset="100%"></stop>
        </linearGradient>
    </defs>
    <g id="Askey-Copy-2" stroke="none" stroke-width="1" fill="none" fill-rule="evenodd">
        <rect fill="#000000" x="0" y="0" width="600" height="600"></rect>
        <g id="Group" transform="translate(203.000000, 135.000000)" fill-rule="nonzero">
            <path d="M6.24,315.14 L6.24,294.86 L16.185,294.86 C19.1316667,294.86 21.5583333,294.459167 23.465,293.6575 C25.3716667,292.855833 26.8775,291.8375 27.9825,290.6025 C29.0875,289.3675 29.8566667,287.980833 30.29,286.4425 C30.7233333,284.904167 30.94,283.42 30.94,281.99 C30.94,280.56 30.7233333,279.075833 30.29,277.5375 C29.8566667,275.999167 29.0875,274.6125 27.9825,273.3775 C26.8775,272.1425 25.3716667,271.124167 23.465,270.3225 C21.5583333,269.520833 19.1316667,269.12 16.185,269.12 L16.185,269.12 L0,269.12 L0,315.14 L6.24,315.14 Z M14.43,289.4 L6.24,289.4 L6.24,274.58 L14.43,274.58 C15.6433333,274.58 16.8458333,274.6775 18.0375,274.8725 C19.2291667,275.0675 20.2908333,275.425 21.2225,275.945 C22.1541667,276.465 22.9016667,277.2125 23.465,278.1875 C24.0283333,279.1625 24.31,280.43 24.31,281.99 C24.31,283.55 24.0283333,284.8175 23.465,285.7925 C22.9016667,286.7675 22.1541667,287.515 21.2225,288.035 C20.2908333,288.555 19.2291667,288.9125 18.0375,289.1075 C16.8458333,289.3025 15.6433333,289.4 14.43,289.4 L14.43,289.4 Z M38.9857143,330.74 C40.5890476,330.74 41.9432143,330.523333 43.0482143,330.09 C44.1532143,329.656667 45.0957143,329.05 45.8757143,328.27 C46.6557143,327.49 47.327381,326.5475 47.8907143,325.4425 C48.4540476,324.3375 48.9957143,323.113333 49.5157143,321.77 L49.5157143,321.77 L64.1407143,284.33 L57.8357143,284.33 L49.1257143,308.38 L48.9957143,308.38 L39.8307143,284.33 L33.0707143,284.33 L45.8757143,315.335 L43.9907143,320.21 C43.687381,320.99 43.3840476,321.683333 43.0807143,322.29 C42.777381,322.896667 42.3982143,323.4275 41.9432143,323.8825 C41.4882143,324.3375 40.9465476,324.684167 40.3182143,324.9225 C39.689881,325.160833 38.9207143,325.28 38.0107143,325.28 C36.8407143,325.28 35.6707143,325.041667 34.5007143,324.565 L34.5007143,324.565 L33.7857143,329.895 C34.6090476,330.241667 35.464881,330.469167 36.3532143,330.5775 C37.2415476,330.685833 38.1190476,330.74 38.9857143,330.74 Z M80.4414286,315.92 C81.0480953,315.92 81.9039286,315.844167 83.0089286,315.6925 C84.1139286,315.540833 85.0130953,315.27 85.7064286,314.88 L85.7064286,314.88 L85.7064286,309.55 C85.0997619,309.896667 84.4280953,310.135 83.6914286,310.265 C82.9547619,310.395 82.2397619,310.46 81.5464286,310.46 C80.4197619,310.46 79.5639286,310.254167 78.9789286,309.8425 C78.3939286,309.430833 77.9605953,308.889167 77.6789286,308.2175 C77.3972619,307.545833 77.2347619,306.7875 77.1914286,305.9425 C77.1480953,305.0975 77.1264286,304.241667 77.1264286,303.375 L77.1264286,303.375 L77.1264286,289.4 L85.5114286,289.4 L85.5114286,284.33 L77.1264286,284.33 L77.1264286,275.685 L71.2764286,275.685 L71.2764286,284.33 L64.5164286,284.33 L64.5164286,289.4 L71.2764286,289.4 L71.2764286,305.455 C71.2764286,306.711667 71.3305953,307.9575 71.4389286,309.1925 C71.5472619,310.4275 71.8939286,311.543333 72.4789286,312.54 C73.0639286,313.536667 73.9739286,314.349167 75.2089286,314.9775 C76.4439286,315.605833 78.1880953,315.92 80.4414286,315.92 Z M98.6271429,315.14 L98.6271429,299.28 C98.6271429,297.503333 98.8438096,295.965 99.2771429,294.665 C99.7104762,293.365 100.317143,292.2925 101.097143,291.4475 C101.877143,290.6025 102.787143,289.985 103.827143,289.595 C104.867143,289.205 105.99381,289.01 107.207143,289.01 C108.117143,289.01 108.994643,289.150833 109.839643,289.4325 C110.684643,289.714167 111.432143,290.169167 112.082143,290.7975 C112.732143,291.425833 113.252143,292.249167 113.642143,293.2675 C114.032143,294.285833 114.227143,295.51 114.227143,296.94 L114.227143,296.94 L114.227143,315.14 L120.077143,315.14 L120.077143,295.315 C120.077143,293.278333 119.77381,291.5125 119.167143,290.0175 C118.560476,288.5225 117.747976,287.298333 116.729643,286.345 C115.71131,285.391667 114.519643,284.6875 113.154643,284.2325 C111.789643,283.7775 110.370476,283.55 108.897143,283.55 C106.51381,283.55 104.412143,284.059167 102.592143,285.0775 C100.772143,286.095833 99.4938096,287.428333 98.7571429,289.075 L98.7571429,289.075 L98.6271429,289.075 L98.6271429,266 L92.7771429,266 L92.7771429,315.14 L98.6271429,315.14 Z M143.527857,315.92 C145.824524,315.92 147.969524,315.4975 149.962857,314.6525 C151.956191,313.8075 153.689524,312.659167 155.162857,311.2075 C156.636191,309.755833 157.795357,308.044167 158.640357,306.0725 C159.485357,304.100833 159.907857,301.988333 159.907857,299.735 C159.907857,297.481667 159.485357,295.38 158.640357,293.43 C157.795357,291.48 156.636191,289.768333 155.162857,288.295 C153.689524,286.821667 151.956191,285.6625 149.962857,284.8175 C147.969524,283.9725 145.824524,283.55 143.527857,283.55 C141.231191,283.55 139.086191,283.9725 137.092857,284.8175 C135.099524,285.6625 133.366191,286.821667 131.892857,288.295 C130.419524,289.768333 129.260357,291.48 128.415357,293.43 C127.570357,295.38 127.147857,297.481667 127.147857,299.735 C127.147857,301.988333 127.570357,304.100833 128.415357,306.0725 C129.260357,308.044167 130.419524,309.755833 131.892857,311.2075 C133.366191,312.659167 135.099524,313.8075 137.092857,314.6525 C139.086191,315.4975 141.231191,315.92 143.527857,315.92 Z M143.527857,310.46 C141.967857,310.46 140.559524,310.189167 139.302857,309.6475 C138.046191,309.105833 136.984524,308.369167 136.117857,307.4375 C135.251191,306.505833 134.579524,305.379167 134.102857,304.0575 C133.626191,302.735833 133.387857,301.295 133.387857,299.735 C133.387857,298.175 133.626191,296.734167 134.102857,295.4125 C134.579524,294.090833 135.251191,292.964167 136.117857,292.0325 C136.984524,291.100833 138.046191,290.364167 139.302857,289.8225 C140.559524,289.280833 141.967857,289.01 143.527857,289.01 C145.087857,289.01 146.496191,289.280833 147.752857,289.8225 C149.009524,290.364167 150.071191,291.100833 150.937857,292.0325 C151.804524,292.964167 152.476191,294.090833 152.952857,295.4125 C153.429524,296.734167 153.667857,298.175 153.667857,299.735 C153.667857,301.295 153.429524,302.735833 152.952857,304.0575 C152.476191,305.379167 151.804524,306.505833 150.937857,307.4375 C150.071191,308.369167 149.009524,309.105833 147.752857,309.6475 C146.496191,310.189167 145.087857,310.46 143.527857,310.46 Z M172.828572,315.14 L172.828572,299.28 C172.828572,297.503333 173.045238,295.965 173.478571,294.665 C173.911905,293.365 174.518572,292.2925 175.298571,291.4475 C176.078571,290.6025 176.988572,289.985 178.028571,289.595 C179.068571,289.205 180.195238,289.01 181.408571,289.01 C182.318571,289.01 183.196071,289.150833 184.041071,289.4325 C184.886072,289.714167 185.633572,290.169167 186.283571,290.7975 C186.933571,291.425833 187.453572,292.249167 187.843571,293.2675 C188.233571,294.285833 188.428571,295.51 188.428571,296.94 L188.428571,296.94 L188.428571,315.14 L194.278571,315.14 L194.278571,295.315 C194.278571,293.278333 193.975238,291.5125 193.368571,290.0175 C192.761905,288.5225 191.949405,287.298333 190.931071,286.345 C189.912738,285.391667 188.721071,284.6875 187.356071,284.2325 C185.991072,283.7775 184.571905,283.55 183.098571,283.55 C180.715238,283.55 178.613572,284.059167 176.793571,285.0775 C174.973572,286.095833 173.695238,287.428333 172.958572,289.075 L172.958572,289.075 L172.828572,289.075 L172.828572,284.33 L166.978571,284.33 L166.978571,315.14 L172.828572,315.14 Z" id="Python" fill="#FFFFFF"></path>
            <path d="M53.2436975,215 L53.2436975,120.254237 L99.8508403,120.254237 C113.660364,120.254237 125.032913,118.381591 133.968487,114.636299 C142.904062,110.891008 149.961134,106.133475 155.139706,100.363701 C160.318277,94.5939266 163.922969,88.1155838 165.953782,80.9286723 C167.984594,73.7417608 169,66.8079096 169,60.1271186 C169,53.4463277 167.984594,46.5124765 165.953782,39.325565 C163.922969,32.1386535 160.318277,25.6603107 155.139706,19.8905367 C149.961134,14.1207627 142.904062,9.36322976 133.968487,5.61793785 C125.032913,1.87264595 113.660364,0 99.8508403,0 L99.8508403,0 L24,0 L24,215 L53.2436975,215 Z M91.5251799,95 L53,95 L53,26 L91.5251799,26 C97.2326139,26 102.889089,26.4539474 108.494604,27.3618421 C114.10012,28.2697368 119.094125,29.9342105 123.476619,32.3552632 C127.859113,34.7763158 131.3753,38.2565789 134.02518,42.7960526 C136.67506,47.3355263 138,53.2368421 138,60.5 C138,67.7631579 136.67506,73.6644737 134.02518,78.2039474 C131.3753,82.7434211 127.859113,86.2236842 123.476619,88.6447368 C119.094125,91.0657895 114.10012,92.7302632 108.494604,93.6381579 C102.889089,94.5460526 97.2326139,95 91.5251799,95 L91.5251799,95 Z" id="P" fill="url(#linearGradient-1)"></path>
        </g>
    </g>
</svg>