<?xml version="1.0" encoding="UTF-8"?>
<svg width="600px" height="600px" viewBox="0 0 600 600" version="1.1" xmlns="http://www.w3.org/2000/svg" xmlns:xlink="http://www.w3.org/1999/xlink">
    <title>Meditap</title>
    <g id="Meditap" stroke="none" stroke-width="1" fill="none" fill-rule="evenodd">
        <rect fill="#4A90E2" x="0" y="0" width="600" height="600"></rect>
        <path d="M182.12,273.28 C184.76,273.28 186.98,272.46 188.78,270.82 C190.58,269.18 191.48,267.12 191.48,264.64 C191.48,262.16 190.58,260.1 188.78,258.46 C186.98,256.82 184.76,256 182.12,256 C179.48,256 177.3,256.86 175.58,258.58 C173.86,260.3 173,262.32 173,264.64 C173,266.96 173.86,268.98 175.58,270.7 C177.3,272.42 179.48,273.28 182.12,273.28 Z M189.44,341.8 L189.44,284.2 L175.04,284.2 L175.04,341.8 L189.44,341.8 Z M220.4,341.8 L220.4,310.36 C220.4,308.44 220.64,306.6 221.12,304.84 C221.6,303.08 222.38,301.52 223.46,300.16 C224.54,298.8 225.9,297.72 227.54,296.92 C229.18,296.12 231.2,295.72 233.6,295.72 C236.08,295.72 238.04,296.3 239.48,297.46 C240.92,298.62 241.98,300.06 242.66,301.78 C243.34,303.5 243.76,305.34 243.92,307.3 C244.08,309.26 244.16,311.04 244.16,312.64 L244.16,312.64 L244.16,341.8 L258.56,341.8 L258.56,305.44 C258.56,302.48 258.2,299.64 257.48,296.92 C256.76,294.2 255.56,291.8 253.88,289.72 C252.2,287.64 250.02,285.96 247.34,284.68 C244.66,283.4 241.4,282.76 237.56,282.76 C232.76,282.76 228.96,283.82 226.16,285.94 C223.36,288.06 221.28,290.56 219.92,293.44 L219.92,293.44 L219.68,293.44 L219.68,284.2 L206,284.2 L206,341.8 L220.4,341.8 Z M298.88,343.24 C300.56,343.24 302.5,343.1 304.7,342.82 C306.9,342.54 308.76,342.04 310.28,341.32 L310.28,341.32 L310.28,329.2 C309.4,329.84 308.2,330.3 306.68,330.58 C305.16,330.86 303.76,331 302.48,331 C299.28,331 297.14,330.16 296.06,328.48 C294.98,326.8 294.44,324.52 294.44,321.64 L294.44,321.64 L294.44,296.44 L310.28,296.44 L310.28,284.2 L294.44,284.2 L294.44,267.52 L280.04,267.52 L280.04,284.2 L268.16,284.2 L268.16,296.44 L280.04,296.44 L280.04,322.84 C280.04,326.2 280.3,329.16 280.82,331.72 C281.34,334.28 282.3,336.42 283.7,338.14 C285.1,339.86 287.02,341.14 289.46,341.98 C291.9,342.82 295.04,343.24 298.88,343.24 Z M335.96,341.8 L335.96,310.96 C335.96,310.16 336.14,308.96 336.5,307.36 C336.86,305.76 337.58,304.16 338.66,302.56 C339.74,300.96 341.3,299.54 343.34,298.3 C345.38,297.06 348.08,296.44 351.44,296.44 C352.56,296.44 353.7,296.54 354.86,296.74 C356.02,296.94 357.2,297.2 358.4,297.52 L358.4,297.52 L358.4,283.6 C357.52,283.36 356.66,283.16 355.82,283 C354.98,282.84 354.12,282.76 353.24,282.76 C349.4,282.76 346,283.68 343.04,285.52 C340.08,287.36 337.8,289.96 336.2,293.32 L336.2,293.32 L335.96,293.32 L335.96,284.2 L321.56,284.2 L321.56,341.8 L335.96,341.8 Z M396.68,343.24 C401,343.24 405.08,342.52 408.92,341.08 C412.76,339.64 416.08,337.6 418.88,334.96 C421.68,332.32 423.9,329.14 425.54,325.42 C427.18,321.7 428,317.56 428,313 C428,308.44 427.18,304.3 425.54,300.58 C423.9,296.86 421.68,293.68 418.88,291.04 C416.08,288.4 412.76,286.36 408.92,284.92 C405.08,283.48 401,282.76 396.68,282.76 C392.36,282.76 388.28,283.48 384.44,284.92 C380.6,286.36 377.28,288.4 374.48,291.04 C371.68,293.68 369.46,296.86 367.82,300.58 C366.18,304.3 365.36,308.44 365.36,313 C365.36,317.56 366.18,321.7 367.82,325.42 C369.46,329.14 371.68,332.32 374.48,334.96 C377.28,337.6 380.6,339.64 384.44,341.08 C388.28,342.52 392.36,343.24 396.68,343.24 Z M396.68,330.28 C394.04,330.28 391.68,329.8 389.6,328.84 C387.52,327.88 385.74,326.6 384.26,325 C382.78,323.4 381.66,321.56 380.9,319.48 C380.14,317.4 379.76,315.24 379.76,313 C379.76,310.76 380.14,308.6 380.9,306.52 C381.66,304.44 382.78,302.6 384.26,301 C385.74,299.4 387.52,298.12 389.6,297.16 C391.68,296.2 394.04,295.72 396.68,295.72 C399.32,295.72 401.68,296.2 403.76,297.16 C405.84,298.12 407.62,299.4 409.1,301 C410.58,302.6 411.7,304.44 412.46,306.52 C413.22,308.6 413.6,310.76 413.6,313 C413.6,315.24 413.22,317.4 412.46,319.48 C411.7,321.56 410.58,323.4 409.1,325 C407.62,326.6 405.84,327.88 403.76,328.84 C401.68,329.8 399.32,330.28 396.68,330.28 Z" id="intro" fill="#FFFFFF" fill-rule="nonzero"></path>
    </g>
</svg>