<?xml version="1.0" encoding="UTF-8"?>
<svg width="600px" height="600px" viewBox="0 0 600 600" version="1.1" xmlns="http://www.w3.org/2000/svg" xmlns:xlink="http://www.w3.org/1999/xlink">
    <title>Askey Copy</title>
    <defs>
        <linearGradient x1="50%" y1="0%" x2="50%" y2="100%" id="linearGradient-1">
            <stop stop-color="#FF7333" offset="0%"></stop>
            <stop stop-color="#FF7BF3" offset="100%"></stop>
        </linearGradient>
    </defs>
    <g id="Askey-Copy" stroke="none" stroke-width="1" fill="none" fill-rule="evenodd">
        <rect fill="#FA6400" x="0" y="0" width="600" height="600"></rect>
        <rect id="Rectangle" fill="url(#linearGradient-1)" x="0" y="0" width="600" height="600"></rect>
        <path d="M317.068966,416 C333.206897,416 348.413793,412.895161 362.689655,406.685484 C376.965517,400.475806 389.068966,390.540323 399,376.879032 L399,376.879032 L366.724138,353.903226 C359.482759,363.217742 351.672414,369.99664 343.293103,374.239919 C334.913793,378.483199 326.275862,380.604839 317.37931,380.604839 C306,380.604839 295.706897,378.534946 286.5,374.395161 C277.293103,370.255376 269.37931,364.563172 262.758621,357.318548 C256.137931,350.073925 251.017241,341.483871 247.396552,331.548387 C243.775862,321.612903 241.965517,310.745968 241.965517,298.947581 C241.965517,287.977151 243.775862,277.731183 247.396552,268.209677 C251.017241,258.688172 256.137931,250.356855 262.758621,243.215726 C269.37931,236.074597 277.293103,230.485887 286.5,226.449597 C295.706897,222.413306 306,220.395161 317.37931,220.395161 C325.034483,220.395161 332.637931,221.844086 340.189655,224.741935 C347.741379,227.639785 355.551724,233.435484 363.62069,242.129032 L363.62069,242.129032 L394.034483,219.774194 C383.068966,207.147849 371.224138,198.195565 358.5,192.917339 C345.775862,187.639113 331.965517,185 317.068966,185 C300.103448,185 284.534483,187.742608 270.362069,193.227823 C256.189655,198.713038 243.982759,206.526882 233.741379,216.669355 C223.5,226.811828 215.482759,239.075941 209.689655,253.461694 C203.896552,267.847446 201,283.837366 201,301.431452 C201,318.611559 203.896552,334.239247 209.689655,348.314516 C215.482759,362.389785 223.5,374.446909 233.741379,384.485887 C243.982759,394.524866 256.189655,402.286962 270.362069,407.772177 C284.534483,413.257392 300.103448,416 317.068966,416 Z" id="C" fill="#FFFFFF" fill-rule="nonzero"></path>
    </g>
</svg>