<?xml version="1.0" encoding="UTF-8"?>
<svg width="600px" height="600px" viewBox="0 0 600 600" version="1.1" xmlns="http://www.w3.org/2000/svg" xmlns:xlink="http://www.w3.org/1999/xlink">
    <title>Artboard</title>
    <g id="Artboard" stroke="none" stroke-width="1" fill="none" fill-rule="evenodd">
        <rect fill="#640000" x="0" y="0" width="600" height="600"></rect>
        <path d="M325.405405,365 L325.405405,348.829787 C325.405405,343.439716 325.828829,338.829787 326.675676,335 C327.522523,331.170213 328.863363,327.765957 330.698198,324.787234 C332.533033,321.808511 334.861862,318.900709 337.684685,316.06383 C340.507508,313.22695 343.894895,309.964539 347.846847,306.276596 C354.057057,300.319149 359.914414,294.64539 365.418919,289.255319 C370.923423,283.865248 375.792793,278.191489 380.027027,272.234043 C384.261261,266.276596 387.648649,259.751773 390.189189,252.659574 C392.72973,245.567376 394,237.340426 394,227.978723 C394,214.64539 391.741742,202.801418 387.225225,192.446809 C382.708709,182.092199 376.427928,173.439716 368.382883,166.489362 C360.337838,159.539007 350.881381,154.219858 340.013514,150.531915 C329.145646,146.843972 317.36036,145 304.657658,145 C291.108108,145 278.687688,146.914894 267.396396,150.744681 C256.105105,154.574468 246.154655,160.177305 237.545045,167.553191 C228.935435,174.929078 221.948949,183.93617 216.585586,194.574468 C211.222222,205.212766 207.693694,217.340426 206,230.957447 L206,230.957447 L260.198198,235.212766 C261.327327,223.58156 265.702703,213.723404 273.324324,205.638298 C280.945946,197.553191 290.684685,193.510638 302.540541,193.510638 C313.54955,193.510638 322.653153,196.985816 329.851351,203.93617 C337.04955,210.886525 340.648649,219.893617 340.648649,230.957447 C340.648649,242.304965 337.12012,251.524823 330.063063,258.617021 L330.063063,258.617021 L297.459459,291.808511 C293.225225,296.347518 289.626126,300.248227 286.662162,303.510638 C283.698198,306.77305 281.298799,310.177305 279.463964,313.723404 C277.629129,317.269504 276.358859,321.241135 275.653153,325.638298 C274.947447,330.035461 274.594595,335.35461 274.594595,341.595745 L274.594595,341.595745 L274.594595,365 L325.405405,365 Z M300,456 C309.35,456 317.354167,452.714286 324.0125,446.142857 C330.670833,439.571429 334,431.714286 334,422.571429 C334,413.428571 330.6,405.714286 323.8,399.428571 C317,393.142857 309.066667,390 300,390 C290.65,390 282.645833,393.285714 275.9875,399.857143 C269.329167,406.428571 266,414.285714 266,423.428571 C266,428 266.920833,432.285714 268.7625,436.285714 C270.604167,440.285714 273.083333,443.714286 276.2,446.571429 C279.316667,449.428571 282.929167,451.714286 287.0375,453.428571 C291.145833,455.142857 295.466667,456 300,456 Z" id="?" fill="#750606" fill-rule="nonzero"></path>
        <text id="Rationale" font-family="Avenir-Heavy, Avenir" font-size="70" font-weight="600" letter-spacing="-0.2953846" fill="#FFFFFF">
            <tspan x="148.809231" y="322">Rationale</tspan>
        </text>
    </g>
</svg>